<svg width="1085" height="255" viewBox="0 0 1085 255" fill="none" xmlns="http://www.w3.org/2000/svg">
<circle cx="126.092" cy="130.093" r="112.5" transform="rotate(44.4868 126.092 130.093)" fill="#F8F8F8"/>
<path d="M60.5017 126.456L55.8647 120.688L29.5009 120.924L31.8455 126.713L60.5017 126.456Z" fill="#2C3452"/>
<path d="M60.5017 126.456L55.8647 120.688L29.5009 120.924L31.8455 126.713L60.5017 126.456Z" fill="#2C3452"/>
<path d="M56.0055 139.357L60.5371 133.426L31.8847 133.682L29.6453 139.593L56.0055 139.357Z" fill="#2C3452"/>
<path d="M87.6 110V108.8C88.96 108.72 89.98 108.56 90.66 108.32C91.38 108.08 91.86 107.6 92.1 106.88C92.34 106.16 92.46 105.08 92.46 103.64V73.88C92.46 72.4 92.34 71.32 92.1 70.64C91.86 69.92 91.38 69.44 90.66 69.2C89.98 68.92 88.96 68.76 87.6 68.72V67.52C88.52 67.56 89.68 67.6 91.08 67.64C92.48 67.68 93.86 67.7 95.22 67.7C96.78 67.7 98.24 67.68 99.6 67.64C100.96 67.6 102.06 67.56 102.9 67.52V68.72C101.54 68.76 100.5 68.92 99.78 69.2C99.1 69.44 98.64 69.92 98.4 70.64C98.16 71.32 98.04 72.4 98.04 73.88V103.64C98.04 105.08 98.16 106.16 98.4 106.88C98.64 107.6 99.1 108.08 99.78 108.32C100.5 108.56 101.54 108.72 102.9 108.8V110C102.06 109.92 100.96 109.88 99.6 109.88C98.24 109.84 96.78 109.82 95.22 109.82C93.86 109.82 92.48 109.84 91.08 109.88C89.68 109.88 88.52 109.92 87.6 110ZM62.52 110V108.8C63.88 108.72 64.9 108.56 65.58 108.32C66.3 108.08 66.78 107.6 67.02 106.88C67.26 106.16 67.38 105.08 67.38 103.64V73.88C67.38 72.4 67.26 71.32 67.02 70.64C66.78 69.92 66.3 69.44 65.58 69.2C64.9 68.92 63.88 68.76 62.52 68.72V67.52C63.36 67.56 64.46 67.6 65.82 67.64C67.18 67.68 68.64 67.7 70.2 67.7C71.6 67.7 72.98 67.68 74.34 67.64C75.74 67.6 76.9 67.56 77.82 67.52V68.72C76.46 68.76 75.42 68.92 74.7 69.2C74.02 69.44 73.56 69.92 73.32 70.64C73.08 71.32 72.96 72.4 72.96 73.88V103.64C72.96 105.08 73.08 106.16 73.32 106.88C73.56 107.6 74.02 108.08 74.7 108.32C75.42 108.56 76.46 108.72 77.82 108.8V110C76.9 109.92 75.74 109.88 74.34 109.88C72.98 109.84 71.6 109.82 70.2 109.82C68.64 109.82 67.18 109.84 65.82 109.88C64.46 109.88 63.36 109.92 62.52 110ZM70.86 89.24V88.04H94.56V89.24H70.86Z" fill="#9E0C0C"/>
<path d="M185.52 149.52C185.36 151.04 185.24 152.52 185.16 153.96C185.12 155.36 185.1 156.44 185.1 157.2C185.1 158.16 185.12 159.06 185.16 159.9C185.2 160.74 185.24 161.48 185.28 162.12H183.9C183.62 159.32 183.24 157.12 182.76 155.52C182.28 153.88 181.44 152.7 180.24 151.98C179.04 151.26 177.18 150.9 174.66 150.9H171.42V185.04C171.42 186.64 171.56 187.84 171.84 188.64C172.16 189.44 172.76 189.98 173.64 190.26C174.52 190.54 175.8 190.72 177.48 190.8V192C176.44 191.92 175.12 191.88 173.52 191.88C171.92 191.84 170.3 191.82 168.66 191.82C166.86 191.82 165.16 191.84 163.56 191.88C162 191.88 160.74 191.92 159.78 192V190.8C161.46 190.72 162.74 190.54 163.62 190.26C164.5 189.98 165.08 189.44 165.36 188.64C165.68 187.84 165.84 186.64 165.84 185.04V150.9H162.6C160.12 150.9 158.26 151.26 157.02 151.98C155.82 152.7 154.98 153.88 154.5 155.52C154.02 157.12 153.64 159.32 153.36 162.12H151.98C152.06 161.48 152.1 160.74 152.1 159.9C152.14 159.06 152.16 158.16 152.16 157.2C152.16 156.44 152.12 155.36 152.04 153.96C152 152.52 151.9 151.04 151.74 149.52C153.42 149.56 155.24 149.6 157.2 149.64C159.2 149.68 161.2 149.7 163.2 149.7C165.2 149.7 167.02 149.7 168.66 149.7C170.3 149.7 172.1 149.7 174.06 149.7C176.06 149.7 178.06 149.68 180.06 149.64C182.06 149.6 183.88 149.56 185.52 149.52Z" fill="#9E0C0C"/>
<path d="M83.82 149.52V150.72C82.46 150.76 81.42 150.92 80.7 151.2C80.02 151.44 79.56 151.92 79.32 152.64C79.08 153.32 78.96 154.4 78.96 155.88V185.64C78.96 187.08 79.08 188.16 79.32 188.88C79.56 189.6 80.02 190.08 80.7 190.32C81.42 190.52 82.46 190.62 83.82 190.62H88.2C90.08 190.62 91.6 190.42 92.76 190.02C93.96 189.62 94.9 189 95.58 188.16C96.3 187.28 96.84 186.12 97.2 184.68C97.56 183.24 97.84 181.48 98.04 179.4H99.42C99.3 180.64 99.24 182.28 99.24 184.32C99.24 185.08 99.26 186.18 99.3 187.62C99.38 189.02 99.5 190.48 99.66 192C97.62 191.92 95.32 191.88 92.76 191.88C90.2 191.84 87.92 191.82 85.92 191.82C85.04 191.82 83.9 191.82 82.5 191.82C81.14 191.82 79.66 191.84 78.06 191.88C76.46 191.88 74.84 191.9 73.2 191.94C71.56 191.94 70 191.96 68.52 192V190.8C69.88 190.72 70.9 190.56 71.58 190.32C72.3 190.08 72.78 189.6 73.02 188.88C73.26 188.16 73.38 187.08 73.38 185.64V155.88C73.38 154.4 73.26 153.32 73.02 152.64C72.78 151.92 72.3 151.44 71.58 151.2C70.9 150.92 69.88 150.76 68.52 150.72V149.52C69.36 149.56 70.46 149.6 71.82 149.64C73.18 149.68 74.64 149.7 76.2 149.7C77.6 149.7 78.98 149.68 80.34 149.64C81.74 149.6 82.9 149.56 83.82 149.52Z" fill="#9E0C0C"/>
<path d="M155.52 67.52C156.36 67.56 157.46 67.6 158.82 67.64C160.18 67.68 161.52 67.7 162.84 67.7C164.72 67.7 166.52 67.68 168.24 67.64C169.96 67.6 171.18 67.58 171.9 67.58C176.74 67.58 180.36 68.68 182.76 70.88C185.16 73.08 186.36 75.92 186.36 79.4C186.36 80.84 186.12 82.36 185.64 83.96C185.16 85.52 184.32 86.98 183.12 88.34C181.96 89.66 180.36 90.74 178.32 91.58C176.28 92.42 173.7 92.84 170.58 92.84H164.82V91.64H169.98C172.82 91.64 174.98 91.1 176.46 90.02C177.98 88.94 179 87.52 179.52 85.76C180.08 84 180.36 82.1 180.36 80.06C180.36 76.26 179.6 73.42 178.08 71.54C176.6 69.66 174.04 68.72 170.4 68.72C168.56 68.72 167.36 69.06 166.8 69.74C166.24 70.42 165.96 71.8 165.96 73.88V103.64C165.96 105.08 166.1 106.16 166.38 106.88C166.7 107.6 167.3 108.08 168.18 108.32C169.06 108.56 170.34 108.72 172.02 108.8V110C170.98 109.92 169.66 109.88 168.06 109.88C166.46 109.84 164.84 109.82 163.2 109.82C161.64 109.82 160.18 109.84 158.82 109.88C157.46 109.88 156.36 109.92 155.52 110V108.8C156.88 108.72 157.9 108.56 158.58 108.32C159.3 108.08 159.78 107.6 160.02 106.88C160.26 106.16 160.38 105.08 160.38 103.64V73.88C160.38 72.4 160.26 71.32 160.02 70.64C159.78 69.92 159.3 69.44 158.58 69.2C157.9 68.92 156.88 68.76 155.52 68.72V67.52Z" fill="#9E0C0C"/>
<path fill-rule="evenodd" clip-rule="evenodd" d="M125.397 243.445C187.232 245.05 238.671 195.797 240.29 133.435C241.909 71.0727 193.094 19.2173 131.258 17.6123C128.468 17.5399 125.698 17.571 122.953 17.7023C181.735 21.1199 228.35 69.8717 228.35 129.511C228.35 191.367 178.206 241.511 116.35 241.511C112.236 241.511 108.173 241.289 104.174 240.857C111.027 242.372 118.122 243.256 125.397 243.445Z" fill="#2C3452"/>
<line x1="129.395" y1="19.459" x2="129.395" y2="239.459" stroke="#2C3452" stroke-opacity="0.7" stroke-width="1.4"/>
<path d="M97.6921 239.024L98.2722 239.178L98.4256 238.597L99.4666 234.66L99.62 234.08L99.0399 233.927C75.5061 227.704 54.7867 213.667 40.2818 194.118C25.777 174.569 18.3485 150.67 19.2154 126.343C20.0824 102.016 29.1933 78.7059 45.0529 60.2389C60.9125 41.772 82.5786 29.2449 106.496 24.7135L107.085 24.6018L106.973 24.0123L106.215 20.011L106.104 19.4215L105.514 19.5332C80.4222 24.2872 57.6917 37.4297 41.053 56.8038C24.4143 76.178 14.8558 100.633 13.9463 126.155C13.0368 151.677 20.8302 176.75 36.0476 197.26C51.265 217.769 73.0023 232.496 97.6921 239.024Z" fill="#FCFCFC" stroke="#6F7896" stroke-width="1.2"/>
<path d="M34.7012 130.111H264.557" stroke="#2C3452" stroke-width="3"/>
<path d="M67.9974 130.11L63.0463 124.654M67.9974 130.11L62.9478 135.653M67.9974 130.11L74.9974 130.173M74.9974 130.173L69.5461 124.712M74.9974 130.173L69.9476 135.716M74.9974 130.173L250.947 129.837M250.947 129.837L246.55 125.113M250.947 129.837L245.508 129.788M250.947 129.837L245.507 129.847M250.947 129.837L246.454 135.797M250.947 129.837L252.007 129.906M252.007 129.906L252.052 124.847M252.007 129.906L251.954 135.846" stroke="#2C3452" stroke-width="2.1"/>
<path d="M277.309 129.789L255.393 141.258L263.152 130.05L254.984 119.138L277.309 129.789Z" fill="#2C3452"/>
<path d="M390.49 129.88C390.49 137.393 389.3 144.3 386.92 150.6C384.54 156.853 381.18 162.243 376.84 166.77C372.5 171.297 367.273 174.82 361.16 177.34C355.093 179.813 348.373 181.05 341 181.05C333.627 181.05 326.907 179.813 320.84 177.34C314.773 174.82 309.57 171.297 305.23 166.77C300.89 162.243 297.53 156.853 295.15 150.6C292.77 144.3 291.58 137.393 291.58 129.88C291.58 122.367 292.77 115.483 295.15 109.23C297.53 102.93 300.89 97.5167 305.23 92.99C309.57 88.4167 314.773 84.87 320.84 82.35C326.907 79.83 333.627 78.57 341 78.57C348.373 78.57 355.093 79.83 361.16 82.35C367.273 84.87 372.5 88.4167 376.84 92.99C381.18 97.5167 384.54 102.93 386.92 109.23C389.3 115.483 390.49 122.367 390.49 129.88ZM376.56 129.88C376.56 123.72 375.72 118.19 374.04 113.29C372.36 108.39 369.98 104.26 366.9 100.9C363.82 97.4933 360.087 94.88 355.7 93.06C351.313 91.24 346.413 90.33 341 90.33C335.633 90.33 330.757 91.24 326.37 93.06C321.983 94.88 318.227 97.4933 315.1 100.9C312.02 104.26 309.64 108.39 307.96 113.29C306.28 118.19 305.44 123.72 305.44 129.88C305.44 136.04 306.28 141.57 307.96 146.47C309.64 151.323 312.02 155.453 315.1 158.86C318.227 162.22 321.983 164.81 326.37 166.63C330.757 168.403 335.633 169.29 341 169.29C346.413 169.29 351.313 168.403 355.7 166.63C360.087 164.81 363.82 162.22 366.9 158.86C369.98 155.453 372.36 151.323 374.04 146.47C375.72 141.57 376.56 136.04 376.56 129.88ZM418.142 162.92C420.429 166 422.926 168.17 425.632 169.43C428.339 170.69 431.372 171.32 434.732 171.32C441.359 171.32 446.446 168.963 449.992 164.25C453.539 159.537 455.312 152.817 455.312 144.09C455.312 139.47 454.892 135.503 454.052 132.19C453.259 128.877 452.092 126.17 450.552 124.07C449.012 121.923 447.122 120.36 444.882 119.38C442.642 118.4 440.099 117.91 437.252 117.91C433.192 117.91 429.622 118.843 426.542 120.71C423.509 122.577 420.709 125.213 418.142 128.62V162.92ZM417.512 120.08C420.499 116.393 423.952 113.43 427.872 111.19C431.792 108.95 436.272 107.83 441.312 107.83C445.419 107.83 449.129 108.623 452.442 110.21C455.756 111.75 458.579 114.06 460.912 117.14C463.246 120.173 465.042 123.953 466.302 128.48C467.562 133.007 468.192 138.21 468.192 144.09C468.192 149.317 467.492 154.193 466.092 158.72C464.692 163.2 462.662 167.097 460.002 170.41C457.389 173.677 454.169 176.267 450.342 178.18C446.562 180.047 442.292 180.98 437.532 180.98C433.192 180.98 429.459 180.257 426.332 178.81C423.252 177.317 420.522 175.263 418.142 172.65V204.01H405.612V109.09H413.102C414.876 109.09 415.972 109.953 416.392 111.68L417.512 120.08ZM542.399 109.09V180H534.979C533.205 180 532.085 179.137 531.619 177.41L530.639 169.78C527.559 173.187 524.105 175.94 520.279 178.04C516.452 180.093 512.065 181.12 507.119 181.12C503.245 181.12 499.815 180.49 496.829 179.23C493.889 177.923 491.415 176.103 489.409 173.77C487.402 171.437 485.885 168.613 484.859 165.3C483.879 161.987 483.389 158.323 483.389 154.31V109.09H495.849V154.31C495.849 159.677 497.062 163.83 499.489 166.77C501.962 169.71 505.719 171.18 510.759 171.18C514.445 171.18 517.875 170.317 521.049 168.59C524.269 166.817 527.232 164.39 529.939 161.31V109.09H542.399ZM603.455 120.78C602.895 121.807 602.032 122.32 600.865 122.32C600.165 122.32 599.372 122.063 598.485 121.55C597.598 121.037 596.502 120.477 595.195 119.87C593.935 119.217 592.418 118.633 590.645 118.12C588.872 117.56 586.772 117.28 584.345 117.28C582.245 117.28 580.355 117.56 578.675 118.12C576.995 118.633 575.548 119.357 574.335 120.29C573.168 121.223 572.258 122.32 571.605 123.58C570.998 124.793 570.695 126.123 570.695 127.57C570.695 129.39 571.208 130.907 572.235 132.12C573.308 133.333 574.708 134.383 576.435 135.27C578.162 136.157 580.122 136.95 582.315 137.65C584.508 138.303 586.748 139.027 589.035 139.82C591.368 140.567 593.632 141.407 595.825 142.34C598.018 143.273 599.978 144.44 601.705 145.84C603.432 147.24 604.808 148.967 605.835 151.02C606.908 153.027 607.445 155.453 607.445 158.3C607.445 161.567 606.862 164.6 605.695 167.4C604.528 170.153 602.802 172.557 600.515 174.61C598.228 176.617 595.428 178.203 592.115 179.37C588.802 180.537 584.975 181.12 580.635 181.12C575.688 181.12 571.208 180.327 567.195 178.74C563.182 177.107 559.775 175.03 556.975 172.51L559.915 167.75C560.288 167.143 560.732 166.677 561.245 166.35C561.758 166.023 562.412 165.86 563.205 165.86C564.045 165.86 564.932 166.187 565.865 166.84C566.798 167.493 567.918 168.217 569.225 169.01C570.578 169.803 572.212 170.527 574.125 171.18C576.038 171.833 578.418 172.16 581.265 172.16C583.692 172.16 585.815 171.857 587.635 171.25C589.455 170.597 590.972 169.733 592.185 168.66C593.398 167.587 594.285 166.35 594.845 164.95C595.452 163.55 595.755 162.057 595.755 160.47C595.755 158.51 595.218 156.9 594.145 155.64C593.118 154.333 591.742 153.237 590.015 152.35C588.288 151.417 586.305 150.623 584.065 149.97C581.872 149.27 579.608 148.547 577.275 147.8C574.988 147.053 572.725 146.213 570.485 145.28C568.292 144.3 566.332 143.087 564.605 141.64C562.878 140.193 561.478 138.42 560.405 136.32C559.378 134.173 558.865 131.583 558.865 128.55C558.865 125.843 559.425 123.253 560.545 120.78C561.665 118.26 563.298 116.067 565.445 114.2C567.592 112.287 570.228 110.77 573.355 109.65C576.482 108.53 580.052 107.97 584.065 107.97C588.732 107.97 592.908 108.717 596.595 110.21C600.328 111.657 603.548 113.663 606.255 116.23L603.455 120.78ZM694.714 159.28C695.461 159.28 696.114 159.583 696.674 160.19L702.064 166C697.958 170.76 692.964 174.47 687.084 177.13C681.251 179.79 674.181 181.12 665.874 181.12C658.688 181.12 652.154 179.883 646.274 177.41C640.394 174.89 635.378 171.39 631.224 166.91C627.071 162.383 623.851 156.97 621.564 150.67C619.278 144.37 618.134 137.44 618.134 129.88C618.134 122.32 619.324 115.39 621.704 109.09C624.084 102.79 627.421 97.3767 631.714 92.85C636.054 88.3233 641.234 84.8233 647.254 82.35C653.274 79.83 659.924 78.57 667.204 78.57C674.344 78.57 680.644 79.7133 686.104 82C691.564 84.2867 696.371 87.39 700.524 91.31L696.044 97.54C695.764 98.0067 695.391 98.4033 694.924 98.73C694.504 99.01 693.921 99.15 693.174 99.15C692.334 99.15 691.308 98.7067 690.094 97.82C688.881 96.8867 687.294 95.86 685.334 94.74C683.374 93.62 680.924 92.6167 677.984 91.73C675.044 90.7967 671.428 90.33 667.134 90.33C661.954 90.33 657.218 91.24 652.924 93.06C648.631 94.8333 644.921 97.4233 641.794 100.83C638.714 104.237 636.311 108.39 634.584 113.29C632.858 118.19 631.994 123.72 631.994 129.88C631.994 136.133 632.881 141.71 634.654 146.61C636.474 151.51 638.924 155.663 642.004 159.07C645.131 162.43 648.794 164.997 652.994 166.77C657.241 168.543 661.814 169.43 666.714 169.43C669.701 169.43 672.384 169.267 674.764 168.94C677.191 168.567 679.408 168.007 681.414 167.26C683.468 166.513 685.358 165.58 687.084 164.46C688.858 163.293 690.608 161.917 692.334 160.33C693.128 159.63 693.921 159.28 694.714 159.28ZM727.75 76.89V180H715.29V76.89H727.75ZM795.416 136.81C795.416 133.917 794.996 131.28 794.156 128.9C793.363 126.473 792.173 124.397 790.586 122.67C789.046 120.897 787.156 119.543 784.916 118.61C782.676 117.63 780.133 117.14 777.286 117.14C771.313 117.14 766.576 118.89 763.076 122.39C759.623 125.843 757.476 130.65 756.636 136.81H795.416ZM805.496 170.06C803.956 171.927 802.113 173.56 799.966 174.96C797.819 176.313 795.509 177.433 793.036 178.32C790.609 179.207 788.089 179.86 785.476 180.28C782.863 180.747 780.273 180.98 777.706 180.98C772.806 180.98 768.279 180.163 764.126 178.53C760.019 176.85 756.449 174.423 753.416 171.25C750.429 168.03 748.096 164.063 746.416 159.35C744.736 154.637 743.896 149.223 743.896 143.11C743.896 138.163 744.643 133.543 746.136 129.25C747.676 124.957 749.869 121.247 752.716 118.12C755.563 114.947 759.039 112.473 763.146 110.7C767.253 108.88 771.873 107.97 777.006 107.97C781.253 107.97 785.173 108.693 788.766 110.14C792.406 111.54 795.533 113.593 798.146 116.3C800.806 118.96 802.883 122.273 804.376 126.24C805.869 130.16 806.616 134.64 806.616 139.68C806.616 141.64 806.406 142.947 805.986 143.6C805.566 144.253 804.773 144.58 803.606 144.58H756.216C756.356 149.06 756.963 152.957 758.036 156.27C759.156 159.583 760.696 162.36 762.656 164.6C764.616 166.793 766.949 168.45 769.656 169.57C772.363 170.643 775.396 171.18 778.756 171.18C781.883 171.18 784.566 170.83 786.806 170.13C789.093 169.383 791.053 168.59 792.686 167.75C794.319 166.91 795.673 166.14 796.746 165.44C797.866 164.693 798.823 164.32 799.616 164.32C800.643 164.32 801.436 164.717 801.996 165.51L805.496 170.06ZM860.351 148.08C854.611 148.267 849.711 148.733 845.651 149.48C841.637 150.18 838.347 151.113 835.781 152.28C833.261 153.447 831.417 154.823 830.251 156.41C829.131 157.997 828.571 159.77 828.571 161.73C828.571 163.597 828.874 165.207 829.481 166.56C830.087 167.913 830.904 169.033 831.931 169.92C833.004 170.76 834.241 171.39 835.641 171.81C837.087 172.183 838.627 172.37 840.261 172.37C842.454 172.37 844.461 172.16 846.281 171.74C848.101 171.273 849.804 170.62 851.391 169.78C853.024 168.94 854.564 167.937 856.011 166.77C857.504 165.603 858.951 164.273 860.351 162.78V148.08ZM820.101 119.1C824.021 115.32 828.244 112.497 832.771 110.63C837.297 108.763 842.314 107.83 847.821 107.83C851.787 107.83 855.311 108.483 858.391 109.79C861.471 111.097 864.061 112.917 866.161 115.25C868.261 117.583 869.847 120.407 870.921 123.72C871.994 127.033 872.531 130.673 872.531 134.64V180H867.001C865.787 180 864.854 179.813 864.201 179.44C863.547 179.02 863.034 178.227 862.661 177.06L861.261 170.34C859.394 172.067 857.574 173.607 855.801 174.96C854.027 176.267 852.161 177.387 850.201 178.32C848.241 179.207 846.141 179.883 843.901 180.35C841.707 180.863 839.257 181.12 836.551 181.12C833.797 181.12 831.207 180.747 828.781 180C826.354 179.207 824.231 178.04 822.411 176.5C820.637 174.96 819.214 173.023 818.141 170.69C817.114 168.31 816.601 165.51 816.601 162.29C816.601 159.49 817.371 156.807 818.911 154.24C820.451 151.627 822.947 149.317 826.401 147.31C829.854 145.303 834.357 143.67 839.911 142.41C845.464 141.103 852.277 140.357 860.351 140.17V134.64C860.351 129.133 859.161 124.98 856.781 122.18C854.401 119.333 850.924 117.91 846.351 117.91C843.271 117.91 840.681 118.307 838.581 119.1C836.527 119.847 834.731 120.71 833.191 121.69C831.697 122.623 830.391 123.487 829.271 124.28C828.197 125.027 827.124 125.4 826.051 125.4C825.211 125.4 824.487 125.19 823.881 124.77C823.274 124.303 822.761 123.743 822.341 123.09L820.101 119.1ZM903.271 119.38C904.811 117.653 906.444 116.09 908.171 114.69C909.897 113.29 911.717 112.1 913.631 111.12C915.591 110.093 917.644 109.323 919.791 108.81C921.984 108.25 924.341 107.97 926.861 107.97C930.734 107.97 934.141 108.623 937.081 109.93C940.067 111.19 942.541 113.01 944.501 115.39C946.507 117.723 948.024 120.547 949.051 123.86C950.077 127.173 950.591 130.837 950.591 134.85V180H938.061V134.85C938.061 129.483 936.824 125.33 934.351 122.39C931.924 119.403 928.214 117.91 923.221 117.91C919.534 117.91 916.081 118.797 912.861 120.57C909.687 122.343 906.747 124.747 904.041 127.78V180H891.511V109.09H899.001C900.774 109.09 901.871 109.953 902.291 111.68L903.271 119.38ZM1017.04 136.81C1017.04 133.917 1016.62 131.28 1015.78 128.9C1014.98 126.473 1013.79 124.397 1012.21 122.67C1010.67 120.897 1008.78 119.543 1006.54 118.61C1004.3 117.63 1001.75 117.14 998.907 117.14C992.934 117.14 988.197 118.89 984.697 122.39C981.244 125.843 979.097 130.65 978.257 136.81H1017.04ZM1027.12 170.06C1025.58 171.927 1023.73 173.56 1021.59 174.96C1019.44 176.313 1017.13 177.433 1014.66 178.32C1012.23 179.207 1009.71 179.86 1007.1 180.28C1004.48 180.747 1001.89 180.98 999.327 180.98C994.427 180.98 989.9 180.163 985.747 178.53C981.64 176.85 978.07 174.423 975.037 171.25C972.05 168.03 969.717 164.063 968.037 159.35C966.357 154.637 965.517 149.223 965.517 143.11C965.517 138.163 966.264 133.543 967.757 129.25C969.297 124.957 971.49 121.247 974.337 118.12C977.184 114.947 980.66 112.473 984.767 110.7C988.874 108.88 993.494 107.97 998.627 107.97C1002.87 107.97 1006.79 108.693 1010.39 110.14C1014.03 111.54 1017.15 113.593 1019.77 116.3C1022.43 118.96 1024.5 122.273 1026 126.24C1027.49 130.16 1028.24 134.64 1028.24 139.68C1028.24 141.64 1028.03 142.947 1027.61 143.6C1027.19 144.253 1026.39 144.58 1025.23 144.58H977.837C977.977 149.06 978.584 152.957 979.657 156.27C980.777 159.583 982.317 162.36 984.277 164.6C986.237 166.793 988.57 168.45 991.277 169.57C993.984 170.643 997.017 171.18 1000.38 171.18C1003.5 171.18 1006.19 170.83 1008.43 170.13C1010.71 169.383 1012.67 168.59 1014.31 167.75C1015.94 166.91 1017.29 166.14 1018.37 165.44C1019.49 164.693 1020.44 164.32 1021.24 164.32C1022.26 164.32 1023.06 164.717 1023.62 165.51L1027.12 170.06ZM1055.37 123.3C1057.61 118.447 1060.37 114.667 1063.63 111.96C1066.9 109.207 1070.89 107.83 1075.6 107.83C1077.1 107.83 1078.52 107.993 1079.87 108.32C1081.27 108.647 1082.51 109.16 1083.58 109.86L1082.67 119.17C1082.39 120.337 1081.69 120.92 1080.57 120.92C1079.92 120.92 1078.96 120.78 1077.7 120.5C1076.44 120.22 1075.02 120.08 1073.43 120.08C1071.19 120.08 1069.19 120.407 1067.41 121.06C1065.69 121.713 1064.12 122.693 1062.72 124C1061.37 125.26 1060.13 126.847 1059.01 128.76C1057.94 130.627 1056.96 132.773 1056.07 135.2V180H1043.54V109.09H1050.68C1052.04 109.09 1052.97 109.347 1053.48 109.86C1054 110.373 1054.35 111.26 1054.53 112.52L1055.37 123.3Z" fill="#2C3452"/>
</svg>
